<?xml version="1.0" standalone="no"?>
<!DOCTYPE svg PUBLIC "-//W3C//DTD SVG 20010904//EN"
 "http://www.w3.org/TR/2001/REC-SVG-20010904/DTD/svg10.dtd">
<svg version="1.0" xmlns="http://www.w3.org/2000/svg"
 width="323.000000pt" height="429.000000pt" viewBox="0 0 323.000000 429.000000"
 preserveAspectRatio="xMidYMid meet">

<g transform="translate(0.000000,429.000000) scale(0.100000,-0.100000)"
fill="#000000" stroke="none">
<path d="M2332 3892 c18 -46 1 -83 -66 -147 -45 -44 -90 -74 -167 -112 -130
-64 -184 -117 -240 -239 -21 -46 -39 -91 -39 -99 0 -8 -4 -15 -10 -15 -5 0
-10 1 -10 3 0 1 7 40 15 86 8 47 12 87 10 90 -11 10 -75 -64 -95 -112 -20 -45
-22 -67 -21 -199 1 -138 -6 -188 -28 -188 -4 0 -5 14 -3 31 3 18 -4 65 -14
105 -18 73 -16 103 12 224 l6 25 -21 -25 c-58 -70 -131 -254 -131 -329 0 -20
11 -83 25 -141 28 -119 28 -120 16 -120 -5 0 -11 12 -14 28 -3 15 -20 58 -38
97 l-33 69 -15 -34 c-9 -20 -15 -67 -15 -110 -1 -65 4 -85 32 -144 17 -37 32
-82 32 -100 l0 -31 -20 25 c-11 14 -30 45 -42 70 l-22 44 -8 -29 c-23 -78 21
-229 80 -276 l27 -21 13 64 c19 88 71 268 83 287 8 12 9 8 4 -14 -30 -134 -46
-225 -56 -325 l-12 -117 -77 -7 c-101 -8 -154 -26 -158 -54 -5 -32 34 -51 127
-62 150 -19 307 -8 372 25 67 35 4 80 -128 91 -104 9 -112 -8 -12 -25 113 -18
140 -42 72 -60 -50 -14 -302 -14 -342 0 -65 23 -27 49 97 65 l52 7 0 -29 c-1
-26 -2 -27 -14 -12 -10 14 -21 16 -55 10 -24 -4 -43 -11 -42 -17 1 -27 276
-27 276 0 0 5 -20 13 -45 17 -36 6 -47 5 -57 -9 -23 -30 -27 12 -14 146 23
250 73 463 141 604 35 73 34 63 -14 -103 -39 -134 -83 -353 -87 -435 -3 -57 0
-58 67 -19 81 48 194 166 194 203 0 14 -90 -30 -153 -76 -27 -19 -52 -32 -55
-29 -13 14 92 95 187 145 57 29 119 67 138 84 40 35 73 95 73 133 l0 27 -23
-21 c-12 -11 -58 -37 -101 -57 -43 -20 -111 -58 -151 -85 -39 -28 -75 -50 -78
-50 -4 0 -1 13 7 29 16 31 66 65 194 132 106 55 146 89 182 153 46 79 40 93
-19 51 -27 -20 -93 -56 -147 -81 -55 -26 -118 -60 -141 -76 -47 -32 -50 -31
-29 10 25 48 69 80 186 135 138 64 184 102 222 182 33 70 36 90 11 80 -60 -24
-105 -36 -125 -33 -21 3 -19 6 17 25 77 41 147 105 171 157 43 92 34 92 -91 4
-64 -44 -118 -78 -120 -76 -11 10 33 54 120 118 111 83 149 125 183 200 34 73
35 166 4 227 -12 23 -31 47 -41 53 -18 9 -18 8 -9 -18z"/>
<path d="M1540 3733 c-86 -8 -160 -27 -228 -59 -203 -93 -342 -249 -415 -466
l-32 -93 -3 -862 -3 -863 116 0 c113 0 115 0 115 23 0 12 3 32 6 45 6 21 4 22
-75 22 l-82 0 3 798 3 797 24 70 c50 150 105 239 210 337 191 181 457 217 696
95 l50 -25 34 30 c39 35 41 33 -64 83 -106 52 -247 79 -355 68z"/>
<path d="M1470 3343 c-73 -75 -94 -104 -138 -193 -74 -152 -97 -244 -97 -405
0 -124 17 -241 35 -230 4 2 10 31 13 64 25 234 133 560 262 789 19 34 30 62
23 62 -6 0 -50 -39 -98 -87z"/>
<path d="M2270 3230 c0 -8 -11 -37 -25 -64 -21 -43 -23 -56 -14 -99 5 -28 9
-380 9 -818 l0 -769 -75 0 -75 0 0 -45 0 -45 120 0 121 0 -4 848 c-3 761 -5
853 -20 911 -19 70 -36 107 -37 81z"/>
<path d="M1129 3143 c-122 -320 -96 -629 68 -804 25 -27 48 -48 49 -46 2 2
-10 37 -28 78 -68 163 -98 321 -97 514 0 72 6 165 13 208 7 42 11 77 9 77 -2
0 -8 -12 -14 -27z"/>
<path d="M1786 2071 c-62 -14 -67 -17 -52 -30 34 -29 49 -72 43 -128 -5 -49
-4 -53 13 -48 10 3 33 -3 51 -14 19 -10 58 -26 87 -36 78 -25 82 -38 82 -250
0 -159 -2 -177 -19 -194 -20 -20 -80 -35 -183 -47 l-58 -6 0 -44 0 -43 -42 -3
c-39 -3 -43 -6 -46 -32 l-4 -29 93 6 c121 9 210 24 285 48 97 31 117 71 53
105 l-29 15 0 219 c0 142 -4 228 -11 244 -12 26 -42 43 -124 70 -70 23 -83 32
-67 48 13 13 18 169 5 167 -5 -1 -39 -9 -77 -18z"/>
<path d="M1372 2066 c15 -9 53 -22 85 -30 48 -11 61 -11 71 0 12 14 11 14 -98
30 -19 3 -46 8 -60 10 l-25 5 27 -15z"/>
<path d="M1322 1969 l3 -74 -84 -30 c-49 -18 -89 -39 -97 -51 -11 -15 -14 -75
-16 -245 l-1 -224 -31 -20 c-90 -59 21 -119 271 -146 54 -5 130 -9 168 -7 67
3 70 4 70 28 0 22 -5 25 -42 28 -40 3 -42 4 -45 40 l-3 37 -124 17 c-151 20
-171 25 -193 45 -16 14 -18 38 -18 205 0 222 -1 219 114 258 48 16 70 28 74
42 4 18 10 19 65 13 59 -7 60 -7 54 16 -4 13 -7 32 -7 42 0 9 -8 17 -17 17
-27 1 -98 35 -123 60 l-22 22 4 -73z"/>
<path d="M1448 1987 c24 -7 36 -7 44 1 9 9 1 12 -32 11 l-45 -1 33 -11z"/>
<path d="M1560 1968 c0 -24 4 -28 30 -28 17 0 30 5 30 10 0 6 -4 10 -10 10
-17 0 -11 18 8 22 25 6 61 -12 68 -34 16 -51 -57 -89 -98 -51 -16 15 -18 15
-18 0 0 -38 85 -50 115 -17 24 26 23 74 0 100 -15 16 -29 20 -72 19 -51 -2
-53 -3 -53 -31z"/>
<path d="M1440 1863 c64 -21 69 -22 63 -7 -3 9 -19 14 -42 13 -20 0 -29 -3
-21 -6z"/>
<path d="M1496 1815 l-28 -12 47 -7 c27 -3 49 -5 51 -4 1 2 -8 10 -19 19 -18
13 -27 14 -51 4z"/>
<path d="M1715 1810 c-16 -11 -39 -20 -50 -21 -11 -1 -4 -5 15 -9 l35 -7 -37
-2 c-31 -1 -38 -5 -38 -21 0 -15 7 -20 27 -20 52 0 253 23 253 29 0 5 -158 71
-170 71 -3 0 -18 -9 -35 -20z"/>
<path d="M1302 1780 c-70 -17 -54 -27 61 -38 62 -7 146 -12 185 -12 63 0 72 2
72 19 0 16 -12 19 -116 25 -64 4 -128 9 -143 11 -14 2 -41 0 -59 -5z"/>
<path d="M1915 1731 c-15 -7 -33 -47 -73 -169 -57 -178 -61 -196 -34 -188 9 2
37 8 62 11 78 12 80 16 80 197 0 87 -3 158 -7 157 -5 0 -17 -4 -28 -8z"/>
<path d="M1380 1717 c3 -3 34 -21 70 -40 64 -33 65 -35 74 -85 23 -133 -33
-184 -142 -130 -68 34 -118 97 -135 171 l-15 62 0 -115 c0 -158 4 -172 51
-187 21 -7 83 -16 138 -20 l99 -6 0 36 0 37 50 0 50 0 0 135 0 135 -89 0 c-49
0 -104 3 -122 6 -19 4 -32 4 -29 1z"/>
<path d="M1673 1713 l-33 -4 0 -130 c0 -143 -4 -135 71 -142 l46 -4 23 71 c13
39 33 104 46 144 l22 72 -71 -2 c-40 0 -87 -3 -104 -5z"/>
<path d="M1560 1335 l0 -85 80 0 80 0 0 85 0 85 -80 0 -80 0 0 -85z"/>
<path d="M1632 1195 c0 -16 2 -22 5 -12 2 9 2 23 0 30 -3 6 -5 -1 -5 -18z"/>
<path d="M1560 720 l0 -80 80 0 80 0 0 80 0 80 -80 0 -80 0 0 -80z"/>
</g>
</svg>
