<?xml version="1.0" standalone="no"?>
<!DOCTYPE svg PUBLIC "-//W3C//DTD SVG 20010904//EN"
 "http://www.w3.org/TR/2001/REC-SVG-20010904/DTD/svg10.dtd">
<svg version="1.0" xmlns="http://www.w3.org/2000/svg"
 width="1049.000000pt" height="834.000000pt" viewBox="0 0 1049.000000 834.000000"
 preserveAspectRatio="xMidYMid meet">

<g transform="translate(0.000000,834.000000) scale(0.100000,-0.100000)"
fill="#000000" stroke="none">
<path d="M6305 7260 c31 -61 13 -130 -55 -204 -81 -88 -201 -166 -355 -233
-99 -43 -174 -100 -227 -172 -45 -63 -114 -204 -148 -301 -13 -36 -27 -69 -32
-75 -11 -13 -1 83 23 209 10 55 16 102 14 105 -11 11 -128 -123 -150 -172 -35
-77 -48 -174 -38 -292 13 -167 10 -257 -13 -295 -29 -50 -44 -50 -33 0 11 47
6 81 -23 190 -24 88 -20 183 12 295 11 38 18 70 16 73 -10 10 -92 -110 -130
-192 -111 -232 -123 -342 -62 -571 26 -100 34 -209 16 -220 -6 -4 -10 11 -10
37 0 28 -13 71 -36 123 -20 44 -45 104 -57 133 -11 29 -24 49 -29 44 -4 -4
-17 -46 -29 -92 -16 -63 -20 -104 -17 -165 4 -71 10 -93 53 -185 36 -77 50
-121 53 -162 3 -32 2 -58 -1 -58 -9 0 -89 139 -113 197 -13 32 -24 54 -24 48
-1 -5 -5 -43 -9 -83 -13 -107 2 -203 43 -287 37 -75 122 -169 130 -144 2 8 14
63 25 123 34 170 144 527 158 513 2 -3 -7 -44 -21 -92 -58 -198 -98 -451 -111
-702 -7 -115 -16 -149 -28 -104 -4 16 -12 18 -53 14 -110 -11 -147 -35 -77
-50 50 -10 337 -10 386 0 70 15 33 39 -77 50 -41 4 -49 2 -53 -14 -3 -10 -12
-19 -21 -19 -13 0 -14 19 -9 148 14 342 84 690 198 975 35 88 107 235 96 197
-3 -8 -18 -58 -35 -110 -100 -311 -184 -700 -193 -895 -3 -45 -1 -50 17 -47
39 7 189 109 259 178 66 66 154 189 142 200 -9 9 -150 -67 -244 -132 -111 -77
-125 -63 -30 30 51 50 93 77 234 149 123 64 185 102 222 137 58 56 98 132 107
206 l7 49 -39 -37 c-23 -22 -88 -60 -158 -93 -116 -54 -242 -130 -320 -194
-22 -17 -41 -29 -43 -27 -2 2 -1 15 3 30 11 44 78 100 201 166 254 136 336
196 389 286 26 44 58 134 50 141 -2 2 -39 -21 -81 -51 -43 -31 -101 -67 -129
-80 -28 -13 -98 -47 -156 -74 -58 -28 -133 -70 -165 -95 -33 -25 -62 -44 -63
-42 -7 7 36 91 63 123 43 51 103 87 239 146 218 93 294 153 356 279 27 57 54
147 44 147 -3 0 -23 -9 -44 -20 -45 -23 -203 -63 -228 -58 -10 2 19 24 73 55
172 99 247 174 292 291 37 96 32 100 -49 42 -146 -104 -310 -211 -315 -207
-10 11 87 104 200 190 202 153 275 240 312 371 36 125 3 302 -67 361 -39 33
-52 32 -33 -5z"/>
<path d="M4963 6995 c-399 -72 -736 -373 -881 -785 -64 -182 -62 -142 -62
-1562 l0 -1288 183 2 182 3 3 68 3 67 -121 0 -120 0 0 1194 c0 1311 -2 1275
61 1452 59 168 122 276 234 400 188 210 438 324 707 324 181 0 314 -33 459
-116 l60 -33 54 42 c29 23 52 47 51 52 -4 18 -127 86 -219 122 -141 54 -242
73 -392 72 -71 0 -162 -7 -202 -14z"/>
<path d="M5089 6513 c-165 -110 -336 -359 -422 -613 -87 -255 -96 -580 -23
-787 l14 -38 5 35 c3 19 15 100 27 180 61 402 221 858 409 1169 28 46 50 86
48 87 -2 2 -28 -13 -58 -33z"/>
<path d="M6200 6198 c-7 -24 -24 -68 -39 -98 -27 -54 -27 -56 -12 -115 13 -51
15 -240 18 -1272 l4 -1213 -121 0 -120 0 0 -70 0 -70 185 0 186 0 -4 1323 c-3
1224 -4 1327 -20 1387 -36 131 -49 170 -56 170 -4 0 -14 -19 -21 -42z"/>
<path d="M4453 6132 c-173 -449 -182 -833 -28 -1131 44 -85 166 -240 205 -261
20 -11 20 -8 -4 39 -62 122 -128 316 -160 473 -52 252 -52 613 0 862 8 38 13
70 11 72 -1 2 -12 -23 -24 -54z"/>
<path d="M4985 4629 c-107 -11 -182 -31 -218 -60 -34 -26 -34 -42 -1 -68 68
-53 311 -81 530 -62 156 14 226 32 261 67 46 46 0 82 -133 108 -43 8 -109 17
-146 20 -61 5 -68 3 -68 -13 0 -15 14 -20 84 -30 46 -6 107 -18 135 -27 136
-40 -18 -94 -269 -94 -251 0 -405 54 -269 94 28 9 89 21 135 27 71 10 84 15
84 31 0 11 -7 17 -17 17 -10 -1 -58 -6 -108 -10z"/>
<path d="M5523 4435 c-173 -55 -482 -61 -689 -15 -63 14 -67 5 -10 -20 105
-45 252 -69 423 -71 112 -1 115 -2 58 -11 -33 -5 -139 -10 -236 -11 -98 -1
-175 -5 -173 -8 2 -4 36 -15 76 -25 60 -16 111 -19 281 -19 200 0 205 -1 145
-14 -87 -19 -366 -20 -438 -2 -85 21 -155 58 -194 101 l-36 40 0 -83 c0 -61 4
-89 17 -106 15 -23 15 -25 -4 -41 -12 -9 -68 -31 -125 -49 -65 -21 -114 -43
-132 -59 -55 -52 -57 -63 -56 -423 l2 -329 -49 -33 c-54 -36 -65 -67 -36 -99
59 -65 288 -118 598 -138 88 -5 179 -10 203 -10 l42 0 0 75 0 75 -45 0 c-44 0
-45 1 -45 33 l0 32 -197 23 c-246 29 -324 46 -357 77 l-26 24 0 295 0 294 25
30 c20 23 51 39 135 67 115 38 126 45 132 85 2 14 9 24 16 22 12 -2 86 -13
197 -29 l50 -8 -75 -5 -75 -5 57 -18 c32 -9 71 -20 88 -23 42 -9 29 -21 -33
-29 -53 -7 -98 -24 -67 -25 8 0 46 -5 83 -10 53 -8 72 -7 90 4 61 38 138 26
186 -29 17 -20 31 -44 31 -55 0 -16 5 -19 28 -15 15 2 76 10 135 16 60 6 120
15 135 19 25 7 25 8 7 15 -137 53 -272 108 -278 115 -5 4 20 17 54 28 61 20
64 20 76 2 7 -10 60 -34 123 -55 84 -28 115 -43 135 -67 l25 -30 0 -294 0
-295 -25 -23 c-14 -13 -46 -29 -72 -35 -37 -10 -326 -51 -355 -51 -5 0 -8 -18
-8 -40 l0 -40 -45 0 -45 0 0 -68 c0 -38 2 -71 4 -73 10 -9 288 12 399 31 193
33 300 72 331 123 16 25 -10 66 -59 91 l-40 21 3 322 c2 208 -1 336 -8 362
-17 65 -54 93 -174 130 -59 19 -117 42 -129 51 -21 17 -21 19 -5 37 33 36 37
265 5 262 -7 -1 -31 -7 -54 -14z"/>
<path d="M4675 3955 c-22 -8 -41 -15 -42 -15 -2 0 -3 -4 -3 -8 0 -11 166 -33
320 -41 69 -4 126 -7 127 -7 0 1 3 14 5 31 l3 30 -110 12 c-148 16 -252 15
-300 -2z"/>
<path d="M5143 3923 c-10 -25 6 -43 37 -43 16 0 30 5 30 10 0 6 -4 10 -10 10
-5 0 -10 5 -10 10 0 15 56 12 69 -4 20 -24 9 -69 -21 -85 -24 -14 -28 -14 -47
3 -25 23 -42 13 -18 -11 33 -33 99 -15 117 32 10 26 -7 73 -31 85 -25 14 -110
8 -116 -7z"/>
<path d="M5675 3888 c-8 -23 -145 -533 -145 -541 0 -8 70 0 118 15 56 17 59
31 67 278 3 124 3 233 0 243 -8 20 -33 23 -40 5z"/>
<path d="M4603 3653 l2 -243 25 -25 c21 -21 43 -27 130 -39 58 -8 158 -18 223
-22 l117 -7 0 25 c0 28 20 38 78 38 l32 0 0 169 0 169 -30 7 c-38 8 -89 59
-96 95 -6 27 -7 27 -126 39 -66 7 -122 10 -124 8 -3 -3 40 -28 95 -56 56 -29
106 -61 112 -73 7 -12 12 -69 13 -129 1 -94 -2 -111 -20 -136 -12 -15 -35 -32
-53 -37 -101 -29 -317 131 -350 258 -5 23 -14 77 -20 121 -7 65 -9 35 -8 -162z"/>
<path d="M5547 3621 c-48 -147 -87 -272 -87 -275 0 -4 12 -6 27 -4 27 3 29 7
100 268 40 146 72 268 73 273 0 4 -6 7 -13 7 -8 0 -45 -98 -100 -269z"/>
<path d="M5423 3873 c-51 -4 -53 -5 -63 -43 -13 -49 -59 -98 -99 -106 l-31 -6
0 -169 0 -169 33 0 c52 0 77 -11 77 -32 0 -14 6 -19 22 -16 20 3 32 34 110
273 48 149 88 271 88 273 0 2 -57 0 -137 -5z"/>
<path d="M5123 3270 c0 -47 2 -66 4 -42 2 23 2 61 0 85 -2 23 -4 4 -4 -43z"/>
<path d="M5150 3270 l0 -80 85 0 85 0 0 80 0 80 -85 0 -85 0 0 -80z"/>
<path d="M5207 2803 c2 -192 6 -355 7 -363 2 -8 4 116 5 277 1 182 5 294 11
298 6 3 10 35 10 71 0 55 -2 64 -18 64 -18 0 -18 -16 -15 -347z"/>
<path d="M5123 2310 c0 -47 2 -66 4 -42 2 23 2 61 0 85 -2 23 -4 4 -4 -43z"/>
<path d="M5150 2310 l0 -80 85 0 85 0 0 80 0 80 -85 0 -85 0 0 -80z"/>
</g>
</svg>
